<?xml version="1.0" encoding="iso-8859-1"?>
<!-- Uploaded to: SVG Repo, www.svgrepo.com, Generator: SVG Repo Mixer Tools -->
<svg fill="#000000" height="800px" width="800px" version="1.1" id="Layer_1" xmlns="http://www.w3.org/2000/svg" xmlns:xlink="http://www.w3.org/1999/xlink" 
	 viewBox="0 0 512 512" xml:space="preserve">
<g>
	<g>
		<g>
			<path d="M504.623,403.291l-201.496-349C293.291,37.253,275.672,27.083,256,27.083s-37.29,10.172-47.126,27.208l-201.496,349
				c-9.837,17.038-9.837,37.38,0,54.418c9.837,17.038,27.454,27.208,47.128,27.208h402.99c19.673,0,37.29-10.172,47.127-27.208
				C514.459,440.671,514.459,420.328,504.623,403.291z M486.798,447.418c-6.116,10.594-17.07,16.917-29.302,16.917H54.504
				c-12.233,0-23.187-6.325-29.302-16.917c-6.116-10.594-6.116-23.242,0-33.836l201.496-349
				c6.116-10.594,17.071-16.917,29.302-16.917c12.232,0,23.187,6.325,29.302,16.917l201.495,349
				C492.915,424.176,492.915,436.824,486.798,447.418z"/>
			<path d="M267.484,74.882c-3.326-5.773-8.623-6.636-11.484-6.636c-2.858,0-8.15,0.861-11.477,6.626L43.021,423.883
				c-3.32,5.762-1.422,10.77,0.006,13.246c1.429,2.474,4.821,6.625,11.478,6.625h402.991c6.661,0,10.051-4.154,11.474-6.623
				c1.43-2.474,3.333-7.488,0.003-13.258L267.484,74.882z M67.197,423.171L256,96.156l188.803,327.016H67.197z"/>
			<path d="M247.178,179.942l-0.408,0.963c-2.213,5.235,0.237,11.273,5.472,13.485c1.308,0.553,2.666,0.815,4.003,0.815
				c4.01,0,7.823-2.361,9.483-6.287l0.408-0.963c2.213-5.235-0.237-11.273-5.472-13.485
				C255.429,172.258,249.391,174.707,247.178,179.942z"/>
			<path d="M251.707,222.11c2.212-5.236-0.24-11.273-5.475-13.485c-5.233-2.208-11.272,0.24-13.485,5.475l-28.52,67.51
				c-1.324,3.135-1.013,6.721,0.832,9.582s4.983,4.624,8.385,4.711l54.671,1.402l-39.295,63.099l-0.785-9.148
				c-0.487-5.663-5.474-9.873-11.134-9.372c-5.662,0.486-9.859,5.47-9.373,11.133l3.39,39.49c0.266,3.1,1.919,5.911,4.499,7.651
				c1.72,1.16,3.726,1.76,5.755,1.76c1.014,0,2.033-0.15,3.024-0.454l37.884-11.649c5.433-1.671,8.482-7.429,6.812-12.862
				c-1.671-5.432-7.428-8.481-12.862-6.812l-11.165,3.433l50.228-80.655c1.951-3.133,2.075-7.071,0.324-10.32
				c-1.75-3.249-5.106-5.312-8.797-5.408l-57.559-1.477L251.707,222.11z"/>
		</g>
	</g>
</g>
</svg>